#!OML:ASF X:\für Bonn\!DataBase\2005_08_11_Bastian_Final\c3d\Bastian.ASF
:FULLY-SPECIFIED
:DEGREES
331
root 0.446272 1.52579 20.0018 -621.05 3.80909 -175.452
lowerback 60.4389 5.34855 12.6478
upperback 25.3303 -5.84983 3.5008
thorax 8.21255 -11.0098 -1.03514
lowerneck -9.22059 -3.74144 -9.96465
upperneck -2.83825 -3.74938 9.14868
head 1.02633 -1.51194 4.23885
rclavicle -4.4329e-014 1.27222e-014
rhumerus -70.4947 39.6631 -107.536
rradius 71.8784
rwrist -6.79521
rhand -22.8046 -16.6062
rfingers 7.12502
rthumb 3.63179 -46.555
lclavicle -4.4329e-014 1.27222e-014
lhumerus -44.4153 -7.48965 73.4741
lradius 60.2296
lwrist 42.7963
lhand -28.2586 1.00655
lfingers 7.12502
lthumb -1.63565 30.98
rfemur -66.4306 -10.9217 30.0945
rtibia 112.564
rfoot 10.1261 -2.3073
rtoes -12.0717
lfemur -34.9935 11.8717 -15.1549
ltibia 56.5127
lfoot 7.72198 2.57654
ltoes -18.5273
332
root 0.44995 1.51802 19.9998 -621.21 3.76795 -175.646
lowerback 60.4397 -8.02432 -10.4024
upperback 25.1924 2.47521 -5.50664
thorax 7.89562 9.37139 -1.22756
lowerneck -8.66545 -3.70591 -9.92957
upperneck -2.76732 -3.78564 9.17404
head 0.962542 -1.55461 4.24486
rclavicle 5.56597e-015 7.15625e-015
rhumerus -70.9071 39.3707 -106.987
rradius 72.8003
rwrist -3.99204
rhand -21.8386 -16.0743
rfingers 7.12502
rthumb 4.56461 -46.0051
lclavicle 5.56597e-015 7.15625e-015
lhumerus -44.5926 -7.46898 73.3266
lradius 60.8185
lwrist 42.2447
lhand -28.4923 0.986619
lfingers 7.12502
lthumb -1.86136 30.9582
rfemur -65.3526 -10.5921 29.8548
rtibia 110.54
rfoot 10.3926 -2.1485
rtoes -12.514
lfemur -34.6553 11.9304 -15.1648
ltibia 56.1737
lfoot 8.27256 2.67666
ltoes -18.5487
333
root 0.453685 1.51085 19.9964 -621.371 3.70077 -175.821
lowerback 59.8988 -8.09007 -10.1719
upperback 25.2631 2.43062 -5.57816
thorax 7.9708 9.32932 -1.36231
lowerneck -8.14539 -3.67058 -9.91306
upperneck -2.66902 -3.81749 9.14904
head 0.910528 -1.59489 4.2383
rclavicle -1.03368e-014 1.59028e-014
rhumerus -71.258 39.1395 -106.244
rradius 73.7993
rwrist -1.01014
rhand -20.7856 -15.6194
rfingers 7.12502
rthumb 5.58138 -45.5259
lclavicle -1.03368e-014 1.59028e-014
lhumerus -44.7268 -7.37341 73.238
lradius 61.3403
lwrist 41.6932
lhand -28.7246 0.926861
lfingers 7.12502
lthumb -2.08575 30.8964
rfemur -64.2435 -10.3094 29.6065
rtibia 108.506
rfoot 10.6217 -1.93731
rtoes -13.0402
lfemur -34.281 11.9254 -15.1838
ltibia 55.788
lfoot 8.89716 2.87334
ltoes -18.0675
334
root 0.457133 1.50466 19.9888 -621.509 3.60911 -175.989
lowerback 59.3237 -8.15964 -9.93135
upperback 25.3314 2.37775 -5.66374
thorax 8.04579 9.28198 -1.51433
lowerneck -7.60283 -3.63098 -9.78947
upperneck -2.60339 -3.8496 9.0723
head 0.841699 -1.636 4.19924
rclavicle 1.13307e-014 -1.59028e-014
rhumerus -71.4592 38.88 -105.365
rradius 74.7584
rwrist 2.0798
rhand -19.7065 -15.2465
rfingers 7.12502
rthumb 6.62314 -45.123
lclavicle 1.13307e-014 -1.59028e-014
lhumerus -44.8246 -7.32844 73.1405
lradius 61.8119
lwrist 41.1769
lhand -28.9927 0.854283
lfingers 7.12502
lthumb -2.34468 30.8211
rfemur -63.1728 -10.0553 29.3432
rtibia 106.496
rfoot 10.816 -1.75978
rtoes -13.2695
lfemur -33.921 11.9012 -15.2362
ltibia 55.3754
lfoot 9.61534 3.14408
ltoes -17.0093
335
root 0.460545 1.49914 19.9782 -621.625 3.49067 -176.141
lowerback 58.7068 -8.23316 -9.68392
upperback 25.4076 2.31964 -5.73806
thorax 8.13362 9.2276 -1.65289
lowerneck -7.03396 -3.59907 -9.73367
upperneck -2.52509 -3.88896 9.03045
head 0.774975 -1.6804 4.18224
rclavicle 1.68967e-015 -1.59028e-015
rhumerus -71.5827 38.5754 -104.386
rradius 75.7038
rwrist 5.14583
rhand -18.7265 -14.8223
rfingers 7.12502
rthumb 7.56912 -44.6669
lclavicle 1.68967e-015 -1.59028e-015
lhumerus -44.901 -7.28399 73.0643
lradius 62.2162
lwrist 40.6746
lhand -29.2457 0.681886
lfingers 7.12502
lthumb -2.58901 30.6459
rfemur -62.103 -9.82271 29.0504
rtibia 104.479
rfoot 11.0145 -1.62241
rtoes -13.3805
lfemur -33.572 11.8563 -15.3199
ltibia 54.9343
lfoot 10.3639 3.41135
ltoes -16.0715
336
root 0.4647 1.49497 19.969 -621.744 3.37211 -176.266
lowerback 58.085 -8.30424 -9.43766
upperback 25.4801 2.25417 -5.79687
thorax 8.21979 9.16396 -1.77315
lowerneck -6.42061 -3.5582 -9.71527
upperneck -2.43175 -3.91839 9.01398
head 0.70571 -1.7206 4.18033
rclavicle -1.46107e-014 -1.19271e-014
rhumerus -71.6632 38.3093 -103.355
rradius 76.6094
rwrist 7.94202
rhand -17.963 -14.4553
rfingers 7.12502
rthumb 8.30609 -44.2721
lclavicle -1.46107e-014 -1.19271e-014
lhumerus -44.9717 -7.22203 72.9938
lradius 62.575
lwrist 40.1369
lhand -29.5045 0.542312
lfingers 7.12502
lthumb -2.83897 30.5032
rfemur -60.9932 -9.62609 28.7781
rtibia 102.44
rfoot 11.1798 -1.49068
rtoes -13.8143
lfemur -33.2102 11.7895 -15.3917
ltibia 54.4715
lfoot 11.1357 3.69816
ltoes -15.1223
337
root 0.470426 1.49158 19.9653 -621.85 3.27978 -176.356
lowerback 57.4183 -8.39216 -9.15159
upperback 25.5754 2.19359 -5.84786
thorax 8.3366 9.10678 -1.89854
lowerneck -5.73822 -3.52755 -9.64728
upperneck -2.42598 -3.9624 8.95877
head 0.598688 -1.76849 4.16015
rclavicle -1.13307e-014 3.97569e-014
rhumerus -71.6199 38.0076 -102.254
rradius 77.4219
rwrist 10.4071
rhand -17.4938 -14.0153
rfingers 7.12502
rthumb 8.7588 -43.8136
lclavicle -1.13307e-014 3.97569e-014
lhumerus -44.9507 -7.16783 72.9276
lradius 62.8358
lwrist 39.6608
lhand -29.7956 0.278037
lfingers 7.12502
lthumb -3.1201 30.235
rfemur -59.8304 -9.4524 28.5507
rtibia 100.346
rfoot 11.3303 -1.39924
rtoes -14.2817
lfemur -32.8535 11.6813 -15.4274
ltibia 53.9865
lfoot 11.892 3.99513
ltoes -14.4643
338
root 0.476005 1.48905 19.965 -621.967 3.16108 -176.408
lowerback 56.7444 -8.48829 -8.88805
upperback 25.6819 2.11384 -5.8886
thorax 8.47233 9.0383 -1.99517
lowerneck -4.96633 -3.4828 -9.69503
upperneck -2.48248 -3.99446 8.63557
head 0.505349 -1.81434 4.52891
rclavicle -5.26779e-015 2.46493e-014
rhumerus -71.4854 37.6949 -101.119
rradius 78.1425
rwrist 12.3255
rhand -17.2917 -13.5429
rfingers 7.12502
rthumb 8.95382 -43.3329
lclavicle -5.26779e-015 2.46493e-014
lhumerus -44.8719 -7.00439 72.8496
lradius 63.0176
lwrist 39.0884
lhand -30.0292 0.0670814
lfingers 7.12502
lthumb -3.34565 30.0206
rfemur -58.6163 -9.33525 28.2978
rtibia 98.2258
rfoot 11.4461 -1.32593
rtoes -14.6572
lfemur -32.4761 11.524 -15.4782
ltibia 53.4984
lfoot 12.5654 4.35483
ltoes -13.8619
339
root 0.48221 1.48862 19.9643 -622.062 3.0412 -176.435
lowerback 55.4598 5.40397 11.6067
upperback 26.2513 -5.39552 2.63227
thorax 9.30119 -10.0944 -2.03847
lowerneck -4.2187 -3.4414 -9.67798
upperneck -2.49745 -4.02331 8.57629
head 0.365938 -1.85299 4.51399
rclavicle 2.85256e-014 -3.18055e-015
rhumerus -71.368 37.4488 -99.9786
rradius 78.785
rwrist 13.4649
rhand -17.4871 -12.9908
rfingers 7.12502
rthumb 8.76536 -42.7888
lclavicle 2.85256e-014 -3.18055e-015
lhumerus -44.8252 -6.85454 72.8446
lradius 63.1859
lwrist 38.5239
lhand -30.3095 -0.165307
lfingers 7.12502
lthumb -3.6163 29.7838
rfemur -57.3954 -9.24521 28.0565
rtibia 96.0929
rfoot 11.5479 -1.28267
rtoes -14.8635
lfemur -32.1265 11.3633 -15.537
ltibia 53.0196
lfoot 13.044 4.63358
ltoes -14.1199
340
root 0.489616 1.48833 19.9621 -622.158 2.89842 -176.448
lowerback 54.801 5.38809 11.3938
upperback 26.3057 -5.34638 2.55959
thorax 9.38197 -9.9788 -2.0697
lowerneck -3.43357 -3.38843 -9.60662
upperneck -2.44853 -4.0464 8.45816
head 0.237173 -1.89113 4.46821
rclavicle 4.01545e-014 1.11319e-014
rhumerus -71.3115 37.1739 -98.9291
rradius 79.3079
rwrist 13.8767
rhand -17.9873 -12.3509
rfingers 7.12502
rthumb 8.28256 -42.1685
lclavicle 4.01545e-014 1.11319e-014
lhumerus -44.8815 -6.64686 72.8201
lradius 63.3226
lwrist 37.8082
lhand -30.5672 -0.352753
lfingers 7.12502
lthumb -3.86519 29.5919
rfemur -56.1668 -9.16091 27.7971
rtibia 93.9671
rfoot 11.5995 -1.29923
rtoes -14.8825
lfemur -31.8022 11.1651 -15.6151
ltibia 52.5752
lfoot 13.4264 4.90748
ltoes -14.7156
341
root 0.496194 1.48935 19.9598 -622.252 2.75548 -176.449
lowerback 54.1423 5.35845 11.1733
upperback 26.3345 -5.29841 2.50301
thorax 9.43718 -9.86172 -2.07288
lowerneck -2.56472 -3.33121 -9.66217
upperneck -2.44976 -4.06257 8.41226
head 0.0814311 -1.92478 4.47769
rclavicle -3.53837e-014 1.35174e-014
rhumerus -71.2131 36.9309 -97.8551
rradius 79.6885
rwrist 13.6129
rhand -18.6063 -11.5911
rfingers 7.12502
rthumb 7.68519 -41.4315
lclavicle -3.53837e-014 1.35174e-014
lhumerus -44.9861 -6.44571 72.8612
lradius 63.4696
lwrist 37.0962
lhand -30.884 -0.521408
lfingers 7.12502
lthumb -4.17117 29.4175
rfemur -54.9251 -9.092 27.5366
rtibia 91.8478
rfoot 11.6417 -1.33057
rtoes -14.8213
lfemur -31.4847 10.9728 -15.6983
ltibia 52.1536
lfoot 13.7614 5.11557
ltoes -15.3897
342
root 0.50387 1.48976 19.9576 -622.335 2.63332 -176.426
lowerback 53.4978 5.28593 11.0051
upperback 26.3343 -5.2537 2.41938
thorax 9.45987 -9.72742 -2.11908
lowerneck -1.66472 -3.28052 -9.72649
upperneck -2.40997 -4.09182 8.39491
head -0.0644318 -1.96519 4.50061
rclavicle 2.85256e-014 9.54166e-015
rhumerus -70.9655 36.6332 -96.8334
rradius 79.8694
rwrist 12.7037
rhand -19.2358 -10.7902
rfingers 7.12502
rthumb 7.07751 -40.6518
lclavicle 2.85256e-014 9.54166e-015
lhumerus -45.0822 -6.27323 72.88
lradius 63.5323
lwrist 36.3228
lhand -31.1915 -0.732052
lfingers 7.12502
lthumb -4.46803 29.2008
rfemur -53.6744 -8.93725 27.2977
rtibia 89.7242
rfoot 11.6431 -1.53273
rtoes -14.7356
lfemur -31.2028 10.7464 -15.7505
ltibia 51.7686
lfoot 14.031 5.36273
ltoes -15.7519
343
root 0.511938 1.49167 19.9564 -622.432 2.4882 -176.409
lowerback 52.8543 5.23759 10.7834
upperback 26.3433 -5.22087 2.36864
thorax 9.49979 -9.61888 -2.10554
lowerneck -0.808769 -3.23127 -9.87768
upperneck -2.36149 -4.11812 8.37789
head -0.198082 -2.00144 4.54175
rclavicle 1.63997e-014 2.3059e-014
rhumerus -70.4872 36.4187 -95.702
rradius 79.8289
rwrist 11.3375
rhand -19.8475 -9.8902
rfingers 7.12502
rthumb 6.48701 -39.7708
lclavicle 1.63997e-014 2.3059e-014
lhumerus -45.2139 -6.08797 72.9749
lradius 63.5984
lwrist 35.5325
lhand -31.5558 -0.921293
lfingers 7.12502
lthumb -4.8198 29.0039
rfemur -52.3932 -8.69843 27.0259
rtibia 87.6061
rfoot 11.613 -1.82187
rtoes -14.7047
lfemur -30.9037 10.5125 -15.8255
ltibia 51.3946
lfoot 14.2195 5.61414
ltoes -15.631
